Patient4_TMGait_0pt5_01_left_20_GRF.mot
version=1
nRows=32
nColumns=19
inDegrees=no
endheader
time	F1x	F1y	F1z	M1x	M1y	M1z	F2x	F2y	F2z	M2x	M2y	M2z	EC1x	EC1y	EC1z	EC2x	EC2y	EC2z
26.73	11.0036	6.1655	8.2513	-2.2191	-4.5699	2.2336	-31.9575	739.3206	-74.1504	293.9174	82.6493	691.1045	-0.0592	0.0182	-0.0073	-0.0462	0.0165	0.9585
26.7435	7.144	4.4008	5.7417	-1.6494	-3.2676	1.7169	-29.4164	734.9262	-65.127	290.6952	72.8838	683.0376	-0.0592	0.0182	-0.0073	-0.0462	0.0165	0.9585
26.757	3.9085	2.9355	3.5507	-1.1495	-2.141	1.2993	-26.2318	731.4205	-56.8901	288.1719	63.6319	675.1673	-0.0592	0.0182	-0.0073	-0.0462	0.0165	0.9585
26.7705	1.4646	1.8528	1.8323	-0.76189	-1.2637	1.0061	-22.5758	729.7053	-50.0689	286.7737	55.5534	668.486	-0.0592	0.0182	-0.0073	-0.0462	0.0165	0.9585
26.784	-0.21087	1.1445	0.61388	-0.49406	-0.65049	0.84694	-18.6651	730.3746	-44.8986	286.6973	48.9395	663.6829	-0.0592	0.0182	-0.0073	-0.0462	0.0165	0.9585
26.7975	-1.238	0.74628	-0.16675	-0.33036	-0.26688	0.80133	-14.7076	733.54	-41.346	287.8949	43.8175	660.9893	-0.0592	0.0182	-0.0073	-0.0462	0.0165	0.9585
26.811	-1.7884	0.58515	-0.59782	-0.24883	-0.073317	0.84521	-10.8452	738.8121	-39.2281	290.1055	40.0505	660.1633	-0.0592	0.0182	-0.0073	-0.0462	0.0165	0.9585
26.8245	-2.0185	0.56992	-0.77952	-0.22198	-0.016014	0.92173	-7.1702	745.4438	-38.2918	292.9357	37.418	660.6339	-0.0592	0.0182	-0.0073	-0.0462	0.0165	0.9585
26.838	-2.071	0.61646	-0.79372	-0.22105	-0.058926	0.98668	-3.7291	752.5387	-38.2866	295.9509	35.6922	661.6892	-0.0592	0.0182	-0.0073	-0.0462	0.0165	0.9585
26.8515	-2.0494	0.63904	-0.71335	-0.21697	-0.16187	0.98016	-0.54722	759.237	-38.9741	298.7536	34.6613	662.6426	-0.0592	0.0182	-0.0073	-0.0462	0.0165	0.9585
26.865	-2.0143	0.55083	-0.58186	-0.17812	-0.29819	0.83947	2.3289	764.8329	-40.1534	301.0274	34.1611	662.9541	-0.0592	0.0182	-0.0073	-0.0462	0.0165	0.9585
26.8785	-2.0055	0.28116	-0.44495	-0.076187	-0.43904	0.51719	4.8681	768.8103	-41.6546	302.5493	34.0538	662.2307	-0.0592	0.0182	-0.0073	-0.0462	0.0165	0.9585
26.892	-2.0226	-0.23503	-0.31709	0.11797	-0.57216	-0.046381	7.0443	770.8579	-43.3291	303.1919	34.2246	660.2459	-0.0592	0.0182	-0.0073	-0.0462	0.0165	0.9585
26.9055	-2.0462	-1.04	-0.21954	0.42326	-0.66671	-0.89332	8.8443	770.8708	-45.0333	302.9209	34.5634	656.9303	-0.0592	0.0182	-0.0073	-0.0462	0.0165	0.9585
26.919	-2.0177	-2.1487	-0.15129	0.84671	-0.70097	-2.0465	10.2581	768.9304	-46.641	301.7812	34.9755	652.3617	-0.0592	0.0182	-0.0073	-0.0462	0.0165	0.9585
26.9325	-1.8417	-3.5059	-0.12703	1.367	-0.62739	-3.46	11.2681	765.2253	-48.0887	299.8607	35.4218	646.6916	-0.0592	0.0182	-0.0073	-0.0462	0.0165	0.9585
26.946	-1.4011	-4.952	-0.14763	1.9232	-0.4063	-4.975	11.9016	760.0447	-49.3712	297.2898	35.8937	640.1194	-0.0592	0.0182	-0.0073	-0.0462	0.0165	0.9585
26.9595	-0.53991	-6.1736	-0.2286	2.3932	0.031143	-6.2846	12.2276	753.8452	-50.5125	294.2626	36.3844	632.977	-0.0592	0.0182	-0.0073	-0.0462	0.0165	0.9585
26.973	0.88342	-6.6426	-0.37706	2.5726	0.75089	-6.8406	12.3766	747.1962	-51.5416	291.0176	36.8668	625.6636	-0.0592	0.0182	-0.0073	-0.0462	0.0165	0.9585
26.9865	2.9965	-5.5784	-0.60545	2.1592	1.8153	-5.8424	12.5119	740.6786	-52.4775	287.7965	37.2909	618.5728	-0.0592	0.0182	-0.0073	-0.0462	0.0165	0.9585
27	5.845	-1.9397	-0.91908	0.74815	3.2476	-2.2089	12.8018	734.7573	-53.3351	284.7928	37.5981	612.0046	-0.0592	0.0182	-0.0073	-0.0462	0.0165	0.9585
27.0135	9.3153	5.527	-1.3075	-2.1493	4.9928	5.3727	13.4065	729.6501	-54.1253	282.1019	37.7289	606.0509	-0.0592	0.0182	-0.0073	-0.0462	0.0165	0.9585
27.027	13.0393	18.1438	-1.7428	-7.0478	6.8754	18.2853	14.4362	725.2283	-54.8552	279.6842	37.641	600.552	-0.0592	0.0182	-0.0073	-0.0462	0.0165	0.9585
27.0405	16.2498	37.0187	-2.1538	-14.3751	8.518	37.7078	15.9558	720.9478	-55.4923	277.344	37.2843	595.0393	-0.0592	0.0182	-0.0073	-0.0462	0.0165	0.9585
27.054	17.7472	62.6558	-2.423	-24.3251	9.325	64.1943	17.9517	715.8822	-55.9626	274.7413	36.6167	588.7784	-0.0592	0.0182	-0.0073	-0.0462	0.0165	0.9585
27.0675	16.309	94.8304	-2.3805	-36.8104	8.6548	97.5769	20.326	708.8118	-56.1242	271.4297	35.5839	580.8358	-0.0592	0.0182	-0.0073	-0.0462	0.0165	0.9585
27.081	11.9347	133.1522	-1.9071	-51.6691	6.3795	137.4844	22.919	698.3651	-55.7957	266.9095	34.1292	570.1815	-0.0592	0.0182	-0.0073	-0.0462	0.0165	0.9585
27.0945	5.6358	176.6087	-0.84965	-68.4793	2.7269	182.8177	25.5229	683.1346	-54.7757	260.6695	32.1923	555.7767	-0.0592	0.0182	-0.0073	-0.0462	0.0165	0.9585
27.108	-1.6004	222.0657	1.1203	-85.9957	-2.2377	230.1644	27.9229	661.7393	-52.9103	252.2087	29.7481	536.5904	-0.0592	0.0182	-0.0073	-0.0462	0.0165	0.9585
27.1215	-8.6524	264.7921	4.303	-102.3887	-8.3436	274.4227	29.8967	633.104	-50.133	241.1297	26.8372	511.8219	-0.0592	0.0182	-0.0073	-0.0462	0.0165	0.9585
27.135	-14.5356	301.6361	8.4151	-116.4656	-14.8865	312.1401	31.2462	596.8287	-46.5444	227.2691	23.6164	481.1866	-0.0592	0.0182	-0.0073	-0.0462	0.0165	0.9585
27.1485	-19.0322	332.7899	12.9652	-128.3265	-21.2409	343.4071	31.8363	553.3511	-42.4151	210.761	20.3368	445.0539	-0.0592	0.0182	-0.0073	-0.0462	0.0165	0.9585
